<?xml version="1.0" encoding="utf-8"?>
<!-- Generator: Adobe Illustrator 25.2.0, SVG Export Plug-In . SVG Version: 6.00 Build 0)  -->
<svg version="1.1" id="Layer_1" xmlns="http://www.w3.org/2000/svg" xmlns:xlink="http://www.w3.org/1999/xlink" x="0px" y="0px"
	 viewBox="0 0 30 30" style="enable-background:new 0 0 30 30;" xml:space="preserve">
<style type="text/css">
	.st0{fill:#1AA9C9;}
</style>
<g>
	<path class="st0" d="M9.4,0.8c0.1,5.9,0.3,11.8,0.5,17.7c3.5,0,6.9,0,10.4,0c0.1-3.6,0.2-7.1,0.3-10.6c-1.2,0-2.4,0-3.6,0
		c0,2.4,0,4.7-0.1,7.1c-1.2,0-2.3,0-3.5,0c0-3.6-0.1-7.1-0.1-10.6c3.7,0,7.4,0,11.1,0c-0.3,5.9-0.5,11.8-0.8,17.7
		c-5.7,0-11.3,0-17,0C6.2,15,5.9,7.9,5.6,0.8c-1.3,0-2.5,0-3.8,0c0.5,8.3,1,16.6,1.5,24.8c6.7,0,13.3,0,20,0c1.1,0,2.2,0,3.3,0
		c0.5-8.3,1-16.6,1.5-24.8C21.9,0.8,15.7,0.8,9.4,0.8z"/>
</g>
</svg>
