<svg xmlns="http://www.w3.org/2000/svg" viewBox="0 0 550 550"><defs><style>.cls-1{fill:#f24a4b;}.cls-2{fill:none;}.cls-3{fill:#232323;}.cls-4{fill:#424242;}.cls-5{fill:#fdd013;}.cls-6{fill:#fbb010;}.cls-7{fill:#f1f4f5;}.cls-8{fill:#dce8ec;}.cls-9{fill:#fff;}.cls-10{fill:#c4dae5;}</style></defs><g id="circle"><circle class="cls-1" cx="274.74" cy="298.44" r="251.56"/><rect class="cls-2" x="-0.26" width="550" height="550"/></g><g id="detail"><path class="cls-3" d="M13.43,123.44a12,12,0,0,0,1,8.06l.09.18-.09-.18A12,12,0,0,1,13.43,123.44Z"/><path class="cls-3" d="M46.17,140.05l19.36,6.12-6.12,19.35.79,1.53q5.76-9.39,12.31-18.22L53.11,111.6a12.07,12.07,0,0,0-16.23-5.15l-6.45,3.32,12.8,24.62Z"/><path class="cls-3" d="M63,172.44l19.36,6.11L76.24,197.9l3.6,6.92,19.35,6.12-6.12,19.35,3.6,6.92L116,243.32l-6.11,19.35,9.54,20.9,18.29-9.5L72.51,148.83Q66,157.65,60.2,167.05Z"/><path class="cls-3" d="M261.46,549.65q3.29.17,6.58.26l6.7-12.86L150,297.52,137.51,304Z"/><polygon points="30.43 109.77 19.69 115.3 30.43 109.77 30.43 109.77"/><path d="M14.55,131.68l31.57,61.71v0Z"/><path d="M110.07,318.24l-.06,0,116.16,227,.16,0Z"/><path d="M98,294.71,46.13,193.37v0L98,294.73Z"/><path class="cls-4" d="M137.51,304l-27.44,14.25L226.33,545.33a252,252,0,0,0,35.13,4.32Z"/><path class="cls-4" d="M109.91,262.67,116,243.32l-19.35-6.11-3.6-6.92,6.12-19.35-19.35-6.12-3.6-6.92,6.12-19.35L63,172.44l-2.8-5.39-.79-1.53,6.12-19.35-19.36-6.12-2.94-5.66-12.8-24.62L19.69,115.3a12.07,12.07,0,0,0-5.23,16.2l.09.18,31.58,61.69L98,294.71l21.43-11.14Z"/><path class="cls-5" d="M75.53,306.39l5.19-2.7A13.22,13.22,0,0,0,80,317.15l1.28,2.46a13.22,13.22,0,0,0,12.53,7.1L110,318.27,98,294.73Z"/><path class="cls-5" d="M69,324.69h0a13.22,13.22,0,0,1,5.63-17.83l-.61.32a12.54,12.54,0,0,0-5.34,16.9l.64,1.23a12.52,12.52,0,0,0,16.89,5.34l.62-.32A13.23,13.23,0,0,1,69,324.69Z"/><path class="cls-5" d="M170.7,286.74A12.52,12.52,0,0,0,176,269.85l-.64-1.23a12.52,12.52,0,0,0-16.89-5.34l-20.77,10.79L150,297.52Z"/><polygon class="cls-5" points="129.4 287.92 137.5 303.99 149.96 297.52 137.74 274.07 119.45 283.57 122.35 289.93 129.4 287.92"/><polygon class="cls-5" points="97.97 294.73 110.02 318.27 110.07 318.24 98.02 294.71 97.97 294.73"/><polygon class="cls-5" points="129.4 287.92 122.35 289.93 119.45 283.57 98.02 294.71 110.07 318.24 137.5 303.99 129.4 287.92"/><polygon class="cls-6" points="86.81 330.33 93.78 326.7 93.78 326.7 86.81 330.33 86.81 330.33"/><polygon class="cls-6" points="74.61 306.87 74.61 306.87 75.53 306.39 74.61 306.87"/><path class="cls-6" d="M81.25,319.61,80,317.15a13.22,13.22,0,0,1,.75-13.46l-5.19,2.7-.92.47A13.22,13.22,0,0,0,69,324.69h0a13.23,13.23,0,0,0,17.83,5.64l7-3.62A13.22,13.22,0,0,1,81.25,319.61Z"/><path class="cls-3" d="M536.17,128.07a11.48,11.48,0,0,0,.17-2.33A11.48,11.48,0,0,1,536.17,128.07Z"/><path class="cls-3" d="M490.08,165.52,484,146.17l19.36-6.12,2.94-5.66,12.8-24.62,10.74,5.53-17.19-8.85a12.07,12.07,0,0,0-16.23,5.15L477,148.83q6.54,8.82,12.31,18.22Z"/><path class="cls-3" d="M533.53,118.29a12.06,12.06,0,0,0-1.69-1.66A12.06,12.06,0,0,1,533.53,118.29Z"/><path class="cls-3" d="M534.23,119.22a12.48,12.48,0,0,1,1.12,2A12.48,12.48,0,0,0,534.23,119.22Z"/><path class="cls-3" d="M274.74,537.05l6.7,12.86c3.75-.1,7.48-.29,11.19-.55L412.2,304.1l-12.67-6.59Z"/><path class="cls-3" d="M430,283.57l9.54-20.9-6.12-19.35,19.36-6.11,3.6-6.92-6.12-19.35,19.35-6.12,3.6-6.92-6.12-19.35,19.35-6.11,2.81-5.39q-5.76-9.39-12.31-18.22L411.74,274.06Z"/><path class="cls-3" d="M274.74,550c2.24,0,4.48,0,6.7-.09l-6.7-12.86L268,549.91Q271.39,550,274.74,550Z"/><path class="cls-4" d="M535.35,121.24a12.48,12.48,0,0,0-1.12-2,10.76,10.76,0,0,0-.7-.93,12.06,12.06,0,0,0-1.69-1.66,12.34,12.34,0,0,0-2-1.33l-10.74-5.53-12.8,24.62-2.94,5.66L484,146.17l6.12,19.35-.79,1.53-2.81,5.39-19.35,6.11,6.12,19.35-3.6,6.92-19.35,6.12,6.12,19.35-3.6,6.92-19.36,6.11,6.12,19.35L430,283.57l22.13,11.5,51.35-101.36L535,131.5a11.84,11.84,0,0,0,1.14-3.43,11.48,11.48,0,0,0,.17-2.33A12.17,12.17,0,0,0,535.35,121.24Z"/><path class="cls-4" d="M412.2,304.1,292.63,549.36a252.34,252.34,0,0,0,33-4.51L440.22,318.66Z"/><path class="cls-5" d="M391,263.28a12.52,12.52,0,0,0-16.89,5.34l-.64,1.23a12.52,12.52,0,0,0,5.34,16.89l20.74,10.77,12.21-23.45Z"/><path class="cls-5" d="M455.71,326.71a13.23,13.23,0,0,0,12.53-7.1l1.28-2.46a13.22,13.22,0,0,0-.75-13.46l5.45,2.83-22.05-11.45-11.95,23.59Z"/><path class="cls-5" d="M480.51,324.69h0a13.23,13.23,0,0,1-17.83,5.64l.62.32a12.52,12.52,0,0,0,16.89-5.34l.64-1.23a12.54,12.54,0,0,0-5.34-16.9l-.61-.32A13.22,13.22,0,0,1,480.51,324.69Z"/><polygon class="cls-5" points="399.53 297.51 412.2 304.1 420.09 287.92 427.14 289.93 430.04 283.57 411.74 274.06 399.53 297.51"/><polygon class="cls-5" points="420.09 287.92 412.2 304.1 440.22 318.66 452.17 295.07 430.04 283.57 427.14 289.93 420.09 287.92"/><polygon class="cls-6" points="455.71 326.7 462.68 330.33 462.68 330.33 455.71 326.7 455.71 326.7"/><polygon class="cls-6" points="474.88 306.87 474.22 306.52 474.88 306.87 474.88 306.87"/><path class="cls-6" d="M469.52,317.15l-1.28,2.46a13.23,13.23,0,0,1-12.53,7.1l7,3.62a13.23,13.23,0,0,0,17.83-5.64h0a13.22,13.22,0,0,0-5.63-17.83l-.66-.34-5.45-2.83A13.22,13.22,0,0,1,469.52,317.15Z"/><polygon points="274.74 354.13 274.75 354.13 274.75 354.13 274.74 354.13"/></g><g id="body"><path class="cls-3" d="M465.65,424.48a64.61,64.61,0,0,0-51-45.64l-82.75-14.4.81-.28h0L331,325.42a32.54,32.54,0,0,0-32.51-31.1H251.7a32.54,32.54,0,0,0-32.52,31.1l-1.69,38.34-86.65,15.08a64.61,64.61,0,0,0-51,45.64L75,451.38a251.6,251.6,0,0,0,396.44,3.91Z"/><path class="cls-4" d="M331,325.42c0-.68-.09-1.36-.16-2-18.46,10.95-38.73,19-55.76,19h0c-12.92,0-27.72-4.65-42.17-11.66-4.59-2.24-9.15-4.7-13.6-7.34-.07.67-.13,1.35-.16,2l-.6,13.6-1.8,41a32.54,32.54,0,0,0,32.51,34h14a32.54,32.54,0,0,1-32.51-34l1.48-33.51c14.67,7.21,29.73,12,42.86,12h0c17.26,0,37.86-8.27,56.52-19.45Z"/><path class="cls-3" d="M274.74,27.22h0A127.69,127.69,0,0,0,147,154.9c0,40.68,14.55,120,33.92,139.42,22.14,22.13,63.21,48.07,93.79,48.07h0c30.58,0,71.66-25.94,93.79-48.07,19.38-19.37,33.92-98.74,33.92-139.42A127.69,127.69,0,0,0,274.74,27.22Z"/></g><g id="face"><path class="cls-7" d="M381.21,164.93c0-110.25-92.17-113.8-106.47-113.8s-106.46,3.55-106.46,113.8c0,17.3-5.47,16.65-5.47,29.48,0,21.53,36.45,61.53,36.45,78.46v7.44c0,22.16,25,32.49,75.48,32.49s75.49-10.33,75.49-32.49v-7.44c0-16.93,36.45-56.93,36.45-78.46C386.68,181.58,381.21,182.23,381.21,164.93ZM321.65,278.14h-91.3l-15.24-49.3,7.51-11.62,36.5,20.67H296l34.24-20.67,6.65,11.62Z"/><path class="cls-8" d="M214.66,280.31v-7.44c0-16.93-36.46-56.93-36.46-78.46,0-12.83,5.48-12.18,5.48-29.48,0-97.66,72.31-111.6,98.76-113.51-3.41-.24-6.06-.29-7.7-.29-14.29,0-106.46,3.55-106.46,113.8,0,17.3-5.47,16.65-5.47,29.48,0,21.53,36.45,61.53,36.45,78.46v7.44c0,22.16,25,32.49,75.48,32.49,2.65,0,5.2,0,7.7-.09C237.13,311.68,214.66,301.31,214.66,280.31Z"/><path class="cls-9" d="M371.32,229.57a.87.87,0,0,0-.2-1.68c-6.84-.92-21.86-4.46-27.27-18.1h0a11.54,11.54,0,0,0-22.78,2.63,12.24,12.24,0,0,0,.18,2h0v0a11.49,11.49,0,0,0,3.92,6.78C338.64,239.67,362.61,232.87,371.32,229.57Z"/><path class="cls-9" d="M178.17,229.57a.87.87,0,0,1,.2-1.68c6.84-.92,21.86-4.46,27.27-18.1h0a11.54,11.54,0,0,1,22.78,2.63,11.24,11.24,0,0,1-.19,2h0v0a11.49,11.49,0,0,1-3.92,6.78C210.85,239.67,186.88,232.87,178.17,229.57Z"/><path class="cls-6" d="M274.74,250.55a69,69,0,0,0,60.95-36.66,65.77,65.77,0,0,0-3.55-6.76c-12.36,13.61-33.44,22.58-57.4,22.58s-45-9-57.39-22.58a65.77,65.77,0,0,0-3.55,6.76A68.93,68.93,0,0,0,274.74,250.55Z"/><rect class="cls-6" x="236.27" y="266.85" width="76.95" height="15.8" rx="7.49"/><path class="cls-5" d="M370.52,51.08a1.57,1.57,0,0,0-3,.35c-1.64,12.27-8,39.22-32.48,48.94h0a20.71,20.71,0,0,0,4.72,40.87,20.36,20.36,0,0,0,3.61-.34v0l0,0a20.65,20.65,0,0,0,12.18-7C388.65,109.71,376.44,66.71,370.52,51.08Z"/><path class="cls-6" d="M370.52,51.08a1.57,1.57,0,0,0-3,.35v.06c5.2,19.75,8.06,51.57-18.67,71.1a20.68,20.68,0,0,1-12.17,7l0,0h0A21.44,21.44,0,0,1,333,130a20.64,20.64,0,0,1-13.47-5,20.71,20.71,0,0,0,20.23,16.28,20.36,20.36,0,0,0,3.61-.34v0l0,0a20.65,20.65,0,0,0,12.18-7C388.65,109.71,376.44,66.71,370.52,51.08Z"/><path class="cls-5" d="M179,51.08a1.57,1.57,0,0,1,3,.35c1.63,12.27,8,39.22,32.48,48.94h0a20.69,20.69,0,0,1-8.34,40.53v0l0,0a20.65,20.65,0,0,1-12.18-7C160.84,109.71,173.05,66.71,179,51.08Z"/><path class="cls-6" d="M179,51.08a1.57,1.57,0,0,1,3,.35v.06c-5.2,19.75-8.06,51.57,18.67,71.1a20.68,20.68,0,0,0,12.17,7l0,0h0a21.44,21.44,0,0,0,3.61.33A20.64,20.64,0,0,0,230,125a20.58,20.58,0,0,1-23.85,15.94v0l0,0a20.65,20.65,0,0,1-12.18-7C160.84,109.71,173.05,66.71,179,51.08Z"/><path class="cls-5" d="M371.32,229.57a.87.87,0,0,0-.2-1.68c-6.84-.92-21.86-4.46-27.27-18.1h0a11.54,11.54,0,0,0-22.78,2.63,12.24,12.24,0,0,0,.18,2h0v0a11.49,11.49,0,0,0,3.92,6.78C338.64,239.67,362.61,232.87,371.32,229.57Z"/><path class="cls-5" d="M178.17,229.57a.87.87,0,0,1,.2-1.68c6.84-.92,21.86-4.46,27.27-18.1h0a11.54,11.54,0,0,1,22.78,2.63,11.24,11.24,0,0,1-.19,2h0v0a11.49,11.49,0,0,1-3.92,6.78C210.85,239.67,186.88,232.87,178.17,229.57Z"/><path class="cls-5" d="M324.18,244a.76.76,0,0,0-1.47.17c-.8,6-3.89,19.12-15.83,23.86h0a10.09,10.09,0,0,0,2.3,19.92,10.31,10.31,0,0,0,1.77-.16h0l0,0a10,10,0,0,0,5.93-3.42C333,272.55,327.07,251.59,324.18,244Z"/><path class="cls-5" d="M225.31,244a.76.76,0,0,1,1.47.17c.8,6,3.89,19.12,15.83,23.86h0a10.09,10.09,0,0,1-2.31,19.92,10.29,10.29,0,0,1-1.76-.16h0l0,0a10,10,0,0,1-5.93-3.42C216.47,272.55,222.42,251.59,225.31,244Z"/><rect class="cls-8" x="179.72" y="145.72" width="190.05" height="15.05" rx="7.13"/><rect class="cls-8" x="251.79" y="156.25" width="45.92" height="40.06"/><path class="cls-5" d="M265,160.77a36.08,36.08,0,0,1-72.16,0Z"/><path class="cls-6" d="M206.5,160.77H192.88a36.07,36.07,0,0,0,42.89,35.42A36.08,36.08,0,0,1,206.5,160.77Z"/><path class="cls-5" d="M356.61,160.77a36.08,36.08,0,0,1-72.16,0Z"/><path class="cls-6" d="M298.07,160.77H284.45a36.07,36.07,0,0,0,42.89,35.42A36.08,36.08,0,0,1,298.07,160.77Z"/><path class="cls-8" d="M302.09,186.65a16.22,16.22,0,0,0-8.3,2.29,24.82,24.82,0,0,0-37.76.2,16.3,16.3,0,1,0-2.3,28.84,24.83,24.83,0,0,0,42.44.15,16.3,16.3,0,1,0,5.92-31.48Z"/><path class="cls-10" d="M302.09,207a16.19,16.19,0,0,1-5.92-1.13,24.83,24.83,0,0,1-42.44-.15,16.3,16.3,0,0,1-21.44-8.91A16.3,16.3,0,0,0,253.73,218a24.83,24.83,0,0,0,42.44.15,16.29,16.29,0,0,0,21-21.29A16.31,16.31,0,0,1,302.09,207Z"/></g></svg>