<svg xmlns="http://www.w3.org/2000/svg" viewBox="0 0 550 550"><defs><style>.cls-1{fill:#5c3685;}.cls-2{fill:none;}.cls-3{fill:#f7b72a;}.cls-4{fill:#c0ccce;}.cls-5{fill:#8e64a6;}.cls-6{fill:#fafbf7;}.cls-7{fill:#e2e4e5;}.cls-8{fill:#f46d99;}.cls-9{fill:#f24a4b;}.cls-10{fill:#7b549b;}</style></defs><g id="circle"><circle class="cls-1" cx="275" cy="298.44" r="251.56"/><rect class="cls-2" width="550" height="550"/></g><g id="detail"><circle class="cls-3" cx="123.51" cy="203.4" r="39.44"/><circle class="cls-3" cx="426.49" cy="203.4" r="39.44"/></g><g id="body"><circle class="cls-4" cx="401.01" cy="222.95" r="42.83"/><circle class="cls-4" cx="148.99" cy="222.95" r="42.83"/><path class="cls-5" d="M275,550a251.11,251.11,0,0,0,199.48-98.31,91.44,91.44,0,0,0-89.34-72H164.86a91.44,91.44,0,0,0-89.34,72A251.11,251.11,0,0,0,275,550Z"/><path class="cls-6" d="M380,402.76a29.47,29.47,0,0,0-29.47-29.47H199.44a29.47,29.47,0,0,0-17.62,53.09,45.5,45.5,0,0,0,43.27,58,55.13,55.13,0,0,0,100,0h.24A45.53,45.53,0,0,0,369,425.77,29.42,29.42,0,0,0,380,402.76Z"/><path class="cls-7" d="M246.21,469.16a45.5,45.5,0,0,1-43.27-58,29.45,29.45,0,0,1-8.39-37.46,29.46,29.46,0,0,0-12.73,52.67,45.5,45.5,0,0,0,43.27,58A55.11,55.11,0,0,0,317,497.1a55.12,55.12,0,0,1-70.74-27.94Z"/><path class="cls-4" d="M275,434.92h0c-30.12,0-54.53-16.89-54.53-47V329.4A54.52,54.52,0,0,1,275,274.87h0a54.52,54.52,0,0,1,54.53,54.53v58.51C329.53,418,305.12,434.92,275,434.92Z"/><rect class="cls-6" x="150.5" y="27.3" width="249.01" height="326.67" rx="124.5"/><path class="cls-7" d="M177.55,229.69V151.26a124.31,124.31,0,0,1,95.75-121,8.34,8.34,0,0,0-7-3A124.28,124.28,0,0,0,151,151.26v78.43A124.28,124.28,0,0,0,275.23,354h0a127,127,0,0,0,13.3-.71A124.29,124.29,0,0,1,177.55,229.69Z"/></g><g id="face"><polygon points="333.64 304.52 219.74 299.54 205.8 231.81 333.64 231.81 333.64 304.52"/><path class="cls-8" d="M275,274.87h0a54.49,54.49,0,0,0-47.22,27.27h94.44A54.49,54.49,0,0,0,275,274.87Z"/><path class="cls-9" d="M275,230c-50,0-90.53-54.18-90.53-10.16C184.47,285.11,225,338,275,338s90.53-52.9,90.53-118.16C365.53,175.83,325,230,275,230Zm56.48,20.48a57,57,0,0,1-113,0,7,7,0,0,1,6.86-8h99.24A7,7,0,0,1,331.48,250.49Z"/><circle class="cls-5" cx="275" cy="203.39" r="32.08"/><path class="cls-10" d="M258.13,203.39a32.08,32.08,0,0,1,24.47-31.16,32.08,32.08,0,1,0,0,62.33A32.09,32.09,0,0,1,258.13,203.39Z"/><circle class="cls-3" cx="210.75" cy="140.36" r="27.94"/><circle class="cls-3" cx="339.25" cy="140.36" r="27.94"/></g></svg>