<svg xmlns="http://www.w3.org/2000/svg" viewBox="0 0 550 550"><defs><style>.cls-1{fill:#ff00db;}.cls-2{fill:none;}.cls-3{fill:#e0b5a4;}.cls-4{fill:#efcab9;}.cls-5{fill:#f7ddd5;}.cls-6{fill:#1a1a1a;}</style></defs><g id="circle"><circle class="cls-1" cx="275" cy="298.44" r="251.56"/><rect class="cls-2" width="550" height="550"/></g><g id="body"><path d="M275,550a251.11,251.11,0,0,0,199.48-98.31,91.44,91.44,0,0,0-89.34-72H164.86a91.44,91.44,0,0,0-89.34,72A251.11,251.11,0,0,0,275,550Z"/><rect class="cls-3" x="220.47" y="274.87" width="109.07" height="167.57" rx="54.53"/><circle class="cls-3" cx="389.76" cy="213.06" r="42.32"/><circle class="cls-3" cx="160.24" cy="213.06" r="42.32"/><path class="cls-4" d="M275,362.6h0c-68.64,0-124.28-64-124.28-132.61V150.91c0-68.63,55.64-83.29,124.28-83.29l2.72,6c68.64,0,121.56,8.64,121.56,77.27V230C399.28,298.62,343.64,362.6,275,362.6Z"/><rect class="cls-5" x="246.6" y="178.44" width="56.79" height="81.93" rx="28.4"/><path d="M360.73,55.74l-.45-.37c-23.54-19.95-53.13-28.1-85.28-28.1s-61.74,8.15-85.28,28.1l-.45.37C156.85,83.45,136,126.51,136,174.86c0,1.1,0,2.19,0,3.28a77.64,77.64,0,0,0,64.88-55.61,87.66,87.66,0,0,0,148.12,0,77.64,77.64,0,0,0,64.88,55.61c0-1.09,0-2.18,0-3.28C414,126.51,393.15,83.45,360.73,55.74Z"/></g><g id="face"><path class="cls-6" d="M362.34,202.81a39.93,39.93,0,1,1-79.86,0c0-22.05,17.88-30.94,39.93-30.94S362.34,180.76,362.34,202.81Z"/><path class="cls-6" d="M267.52,202.81a39.93,39.93,0,1,1-79.86,0c0-22.05,17.88-30.94,39.93-30.94S267.52,180.76,267.52,202.81Z"/><rect x="174.89" y="167.5" width="200.23" height="23.61" rx="11.8"/></g></svg>