<svg xmlns="http://www.w3.org/2000/svg" viewBox="0 0 550 550"><defs><style>.cls-1{fill:#ffce00;}.cls-2{fill:none;}.cls-3{fill:#f46d99;}.cls-4{fill:#7c3200;}.cls-5{fill:#ba4b00;}.cls-6{fill:#f4136b;}</style></defs><g id="circle"><circle class="cls-1" cx="275" cy="298.44" r="251.56"/><rect class="cls-2" width="550" height="550"/></g><g id="body"><rect x="193.22" y="215.11" width="159.78" height="102.95"/><path class="cls-3" d="M275,274.87h0a54.49,54.49,0,0,0-47.22,27.27h94.44A54.49,54.49,0,0,0,275,274.87Z"/><path class="cls-4" d="M385.14,379.71h-50.4a10.21,10.21,0,0,1-10.21-10.2v-45.4c0-30.12-99.06-30.12-99.06,0v45.4a10.21,10.21,0,0,1-10.21,10.2h-50.4a91.44,91.44,0,0,0-89.34,72c46,59.78,124.11,18.63,205.37,18.63s147.6,41.15,193.59-18.63A91.44,91.44,0,0,0,385.14,379.71Z"/><circle class="cls-4" cx="396.66" cy="207.76" r="42.32"/><circle class="cls-4" cx="147.65" cy="207.76" r="42.32"/><path class="cls-5" d="M393.48,139.18l-26.89-14a12,12,0,0,0-7.91-1.1l-22.41,4.58A12,12,0,0,1,322,118.22l-2.52-23.68A11.93,11.93,0,0,0,311,84.36l-26.84-8a12,12,0,0,1-8.53-11.45V35.57a8.31,8.31,0,0,0-8.95-8.27,124.28,124.28,0,0,0-115.33,124v78.43A124.28,124.28,0,0,0,275.64,354h0A124.28,124.28,0,0,0,399.92,229.69V149.78A12,12,0,0,0,393.48,139.18Zm-62,111.31a57,57,0,0,1-113,0,7,7,0,0,1,6.86-8h99.24A7,7,0,0,1,331.48,250.49Z"/><path d="M170.7,379.71h-5.84a91.44,91.44,0,0,0-89.34,72,251.53,251.53,0,0,0,398.66.38,370.09,370.09,0,0,1-74.26,7.48A367.34,367.34,0,0,1,170.7,379.71Z"/><circle class="cls-6" cx="237.94" cy="28.06" r="15.8"/><circle class="cls-6" cx="256.47" cy="32.94" r="15.8"/><circle class="cls-6" cx="279.76" cy="28.06" r="15.8"/><circle class="cls-6" cx="268.11" cy="51.18" r="15.8"/><circle class="cls-6" cx="291.4" cy="46.3" r="15.8"/><circle class="cls-6" cx="192.79" cy="32.3" r="15.8"/><circle class="cls-6" cx="211.32" cy="37.18" r="15.8"/><circle class="cls-6" cx="234.61" cy="32.3" r="15.8"/><circle class="cls-6" cx="222.97" cy="55.42" r="15.8"/><circle class="cls-6" cx="246.25" cy="50.54" r="15.8"/><circle class="cls-6" cx="248.87" cy="55.42" r="15.8"/><circle class="cls-6" cx="267.4" cy="60.3" r="15.8"/><circle class="cls-6" cx="290.69" cy="55.42" r="15.8"/><circle class="cls-6" cx="279.05" cy="78.54" r="15.8"/><circle class="cls-6" cx="302.33" cy="73.66" r="15.8"/><circle class="cls-6" cx="329.06" cy="41.11" r="15.8"/><circle class="cls-6" cx="347.6" cy="45.98" r="15.8"/><circle class="cls-6" cx="370.89" cy="41.11" r="15.8"/><circle class="cls-6" cx="359.24" cy="64.23" r="15.8"/><circle class="cls-6" cx="382.53" cy="59.35" r="15.8"/><circle class="cls-6" cx="283.92" cy="45.35" r="15.8"/><circle class="cls-6" cx="302.45" cy="50.23" r="15.8"/><circle class="cls-6" cx="325.74" cy="45.35" r="15.8"/><circle class="cls-6" cx="314.09" cy="68.47" r="15.8"/><circle class="cls-6" cx="337.38" cy="63.59" r="15.8"/><circle class="cls-6" cx="340" cy="68.47" r="15.8"/><circle class="cls-6" cx="358.53" cy="73.35" r="15.8"/><circle class="cls-6" cx="381.82" cy="68.47" r="15.8"/><circle class="cls-6" cx="370.17" cy="91.59" r="15.8"/><circle class="cls-6" cx="393.46" cy="86.71" r="15.8"/><circle class="cls-6" cx="340" cy="77.27" r="15.8"/><circle class="cls-6" cx="358.53" cy="82.15" r="15.8"/><circle class="cls-6" cx="381.82" cy="77.27" r="15.8"/><circle class="cls-6" cx="370.17" cy="100.39" r="15.8"/><circle class="cls-6" cx="393.46" cy="95.51" r="15.8"/><circle class="cls-6" cx="294.85" cy="81.51" r="15.8"/><circle class="cls-6" cx="313.38" cy="86.39" r="15.8"/><circle class="cls-6" cx="336.67" cy="81.51" r="15.8"/><circle class="cls-6" cx="325.02" cy="104.63" r="15.8"/><circle class="cls-6" cx="348.31" cy="99.75" r="15.8"/><circle class="cls-6" cx="350.93" cy="104.63" r="15.8"/><circle class="cls-6" cx="369.46" cy="109.51" r="15.8"/><circle class="cls-6" cx="392.75" cy="104.63" r="15.8"/><circle class="cls-6" cx="381.1" cy="127.75" r="15.8"/><circle class="cls-6" cx="404.39" cy="122.87" r="15.8"/><circle class="cls-6" cx="327.76" cy="95.19" r="15.8"/><circle class="cls-6" cx="346.29" cy="100.07" r="15.8"/><circle class="cls-6" cx="369.58" cy="95.19" r="15.8"/><circle class="cls-6" cx="357.94" cy="118.31" r="15.8"/><circle class="cls-6" cx="381.22" cy="113.43" r="15.8"/><circle class="cls-6" cx="282.61" cy="99.43" r="15.8"/><circle class="cls-6" cx="301.14" cy="104.31" r="15.8"/><circle class="cls-6" cx="324.43" cy="99.43" r="15.8"/><circle class="cls-6" cx="312.79" cy="122.55" r="15.8"/><circle class="cls-6" cx="336.07" cy="117.67" r="15.8"/><circle class="cls-6" cx="338.69" cy="122.55" r="15.8"/><circle class="cls-6" cx="357.22" cy="127.43" r="15.8"/><circle class="cls-6" cx="380.51" cy="122.55" r="15.8"/><circle class="cls-6" cx="368.87" cy="145.67" r="15.8"/><circle class="cls-6" cx="392.15" cy="140.79" r="15.8"/><circle class="cls-6" cx="207.76" cy="81.51" r="15.8"/><circle class="cls-6" cx="226.29" cy="86.39" r="15.8"/><circle class="cls-6" cx="249.58" cy="81.51" r="15.8"/><circle class="cls-6" cx="237.94" cy="104.63" r="15.8"/><circle class="cls-6" cx="261.22" cy="99.75" r="15.8"/><circle class="cls-6" cx="162.61" cy="85.75" r="15.8"/><circle class="cls-6" cx="181.14" cy="90.63" r="15.8"/><circle class="cls-6" cx="204.43" cy="85.75" r="15.8"/><circle class="cls-6" cx="192.79" cy="108.87" r="15.8"/><circle class="cls-6" cx="216.07" cy="103.99" r="15.8"/><circle class="cls-6" cx="218.69" cy="108.87" r="15.8"/><circle class="cls-6" cx="237.22" cy="113.75" r="15.8"/><circle class="cls-6" cx="260.51" cy="108.87" r="15.8"/><circle class="cls-6" cx="248.87" cy="131.99" r="15.8"/><circle class="cls-6" cx="272.15" cy="127.11" r="15.8"/><circle class="cls-6" cx="214.65" cy="48.74" r="15.8"/><circle class="cls-6" cx="233.18" cy="53.62" r="15.8"/><circle class="cls-6" cx="256.47" cy="48.74" r="15.8"/><circle class="cls-6" cx="244.83" cy="71.86" r="15.8"/><circle class="cls-6" cx="268.11" cy="66.98" r="15.8"/><circle class="cls-6" cx="169.5" cy="52.98" r="15.8"/><circle class="cls-6" cx="188.03" cy="57.86" r="15.8"/><circle class="cls-6" cx="211.32" cy="52.98" r="15.8"/><circle class="cls-6" cx="199.68" cy="76.1" r="15.8"/><circle class="cls-6" cx="222.97" cy="71.23" r="15.8"/><circle class="cls-6" cx="225.58" cy="76.1" r="15.8"/><circle class="cls-6" cx="244.11" cy="80.98" r="15.8"/><circle class="cls-6" cx="267.4" cy="76.1" r="15.8"/><circle class="cls-6" cx="255.76" cy="99.22" r="15.8"/><circle class="cls-6" cx="279.05" cy="94.35" r="15.8"/><circle class="cls-6" cx="286.53" cy="25.3" r="15.8"/><circle class="cls-6" cx="305.06" cy="30.18" r="15.8"/><circle class="cls-6" cx="328.35" cy="25.3" r="15.8"/><circle class="cls-6" cx="316.71" cy="48.42" r="15.8"/><circle class="cls-6" cx="340" cy="43.54" r="15.8"/><circle class="cls-6" cx="241.38" cy="29.55" r="15.8"/><circle class="cls-6" cx="259.92" cy="34.42" r="15.8"/><circle class="cls-6" cx="283.2" cy="29.55" r="15.8"/><circle class="cls-6" cx="271.56" cy="52.67" r="15.8"/><circle class="cls-6" cx="294.85" cy="47.79" r="15.8"/><circle class="cls-6" cx="297.46" cy="52.67" r="15.8"/><circle class="cls-6" cx="316" cy="57.54" r="15.8"/><circle class="cls-6" cx="339.28" cy="52.67" r="15.8"/><circle class="cls-6" cx="327.64" cy="75.79" r="15.8"/><circle class="cls-6" cx="350.93" cy="70.91" r="15.8"/><circle class="cls-6" cx="250.89" cy="88.19" r="15.8"/><circle class="cls-6" cx="269.42" cy="93.07" r="15.8"/><circle class="cls-6" cx="292.71" cy="88.19" r="15.8"/><circle class="cls-6" cx="281.06" cy="111.31" r="15.8"/><circle class="cls-6" cx="304.35" cy="106.43" r="15.8"/><circle class="cls-6" cx="205.74" cy="92.43" r="15.8"/><circle class="cls-6" cx="224.27" cy="97.31" r="15.8"/><circle class="cls-6" cx="247.56" cy="92.43" r="15.8"/><circle class="cls-6" cx="235.92" cy="115.55" r="15.8"/><circle class="cls-6" cx="259.2" cy="110.67" r="15.8"/><circle class="cls-6" cx="261.82" cy="115.55" r="15.8"/><circle class="cls-6" cx="280.35" cy="120.43" r="15.8"/><circle class="cls-6" cx="303.64" cy="115.55" r="15.8"/><circle class="cls-6" cx="292" cy="138.67" r="15.8"/><circle class="cls-6" cx="315.28" cy="133.79" r="15.8"/><circle class="cls-6" cx="211.8" cy="68.47" r="15.8"/><circle class="cls-6" cx="230.33" cy="73.35" r="15.8"/><circle class="cls-6" cx="253.62" cy="68.47" r="15.8"/><circle class="cls-6" cx="241.98" cy="91.59" r="15.8"/><circle class="cls-6" cx="265.26" cy="86.71" r="15.8"/><circle class="cls-6" cx="166.65" cy="72.71" r="15.8"/><circle class="cls-6" cx="185.18" cy="77.59" r="15.8"/><circle class="cls-6" cx="208.47" cy="72.71" r="15.8"/><circle class="cls-6" cx="196.83" cy="95.83" r="15.8"/><circle class="cls-6" cx="220.12" cy="90.95" r="15.8"/><circle class="cls-6" cx="222.73" cy="95.83" r="15.8"/><circle class="cls-6" cx="241.26" cy="100.71" r="15.8"/><circle class="cls-6" cx="264.55" cy="95.83" r="15.8"/><circle class="cls-6" cx="252.91" cy="118.95" r="15.8"/><circle class="cls-6" cx="276.19" cy="114.07" r="15.8"/></g></svg>