<!-- Generator: Adobe Illustrator 25.2.0, SVG Export Plug-In  -->
<svg version="1.1" xmlns="http://www.w3.org/2000/svg" xmlns:xlink="http://www.w3.org/1999/xlink" x="0px" y="0px" width="44.1px"
	 height="44.1px" viewBox="0 0 44.1 44.1" style="overflow:visible;enable-background:new 0 0 44.1 44.1;" xml:space="preserve">
<style type="text/css">
	.st0{fill:#FD196F;stroke:#FFFFFF;stroke-width:1.5;stroke-linecap:round;stroke-linejoin:round;stroke-miterlimit:10;}
	.st1{fill:none;stroke:#FFFFFF;stroke-width:1.5;stroke-linecap:round;stroke-linejoin:round;stroke-miterlimit:10;}
	.st2{fill:none;}
</style>
<defs>
</defs>
<g id="chatB_1_">
	<path class="st0" d="M18.4,16.3h16.8c0.7,0,1.4,0.6,1.4,1.4c0,0,0,0,0,0v11.4c0,0.7-0.6,1.4-1.4,1.4l0,0h-2.6v3.4l-3.4-3.4H18.4
		c-0.7,0-1.4-0.6-1.4-1.4l0,0V17.7C17,16.9,17.6,16.3,18.4,16.3C18.4,16.3,18.4,16.3,18.4,16.3z"/>
</g>
<path class="st0" d="M27.4,10.3H9c-0.8,0-1.5,0.7-1.5,1.5l0,0v12.5c0,0.8,0.7,1.5,1.5,1.5h2.8v3.7l3.7-3.7h11.9
	c0.8,0,1.5-0.7,1.5-1.5V11.8C28.9,10.9,28.3,10.3,27.4,10.3z"/>
<line class="st1" x1="11.1" y1="18.1" x2="19.7" y2="18.1"/>
<line class="st1" x1="11.1" y1="14.6" x2="23.1" y2="14.6"/>
<rect class="st2" width="44.1" height="44.1"/>
</svg>
