<svg xmlns="http://www.w3.org/2000/svg" viewBox="0 0 509.59 509.59">
  <defs>
    <style>
      .cls-1 {
        fill: none;
      }

      .cls-2 {
        fill: #f24a4b;
      }

      .cls-3 {
        fill: #232323;
      }

      .cls-4 {
        fill: #fdd013;
      }

      .cls-5 {
        fill: #fbb010;
      }

      .cls-6 {
        fill: #f1f4f5;
      }

      .cls-7 {
        fill: #dce8ec;
      }

      .cls-8 {
        fill: #fff;
      }

      .cls-9 {
        fill: #c4dae5;
      }

#ninjaHead{
  -webkit-animation: walk 2s infinite;
  animation: walk 2s infinite;
}

#ninjaMask{
  -webkit-animation: walkS 2s infinite;
  animation: walkS 2s infinite;
}

#ninjaSwords{
  -webkit-animation: rotation 2s infinite;
  animation: rotation 2s infinite;
}

@-webkit-keyframes walkS {
    0% {
      -webkit-transform: translateY(0);
      transform: translateY(0);
    }
    50% {
      -webkit-transform: translateY(-5px);
      transform: translateY(-5px);
    }
  }
  
  @keyframes walkS {
    0% {
      -webkit-transform: translateY(0);
      -ms-transform: translateY(0);
      transform: translateY(0);
    }
  
    50% {
      -webkit-transform: translateY(-5px);
      -ms-transform: translateY(-5px);
      transform: translateY(-5px);
    }
  }

  @-webkit-keyframes walk {
    0% {
      -webkit-transform: translateY(0);
      transform: translateY(0);
    }
    50% {
      -webkit-transform: translateY(-4px);
      transform: translateY(-4px);
    }
  }
  
  @keyframes walk {
    0% {
      -webkit-transform: translateY(0);
      -ms-transform: translateY(0);
      transform: translateY(0);
    }
  
    50% {
      -webkit-transform: translateY(-4px);
      -ms-transform: translateY(-4px);
      transform: translateY(-4px);
    }
  }

  @-webkit-keyframes rotation {
    0% {
      -webkit-transform: translateY(0);
      transform: translateY(0);
    }
    50% {
      -webkit-transform: translateY(5px);
      transform: translateY(5px);
    }
  }
  
  @keyframes rotation {
    0% {
      -webkit-transform: translateY(0);
      -ms-transform: translateY(0);
      transform: translateY(0);
    }
  
    50% {
      -webkit-transform: translateY(5px);
      -ms-transform: translateY(5px);
      transform: translateY(5px);
    }
  }
    </style>
  </defs>
  <g id="ninjaBG">
    <g>
      <rect class="cls-1" x="4.8" y="9.59" width="500" height="500"/>
      <circle class="cls-2" cx="254.8" cy="276.51" r="233.08"/>
    </g>
    <rect class="cls-1" width="509.59" height="509.59"/>
  </g>
  <g id="ninjaSwords">
    <g>
      <path d="M486.31,97.23,470.39,89a11.18,11.18,0,0,0-15,4.77L330.78,332.91l-55.9,107.32H325l166.16-328a11.18,11.18,0,0,0-4.86-15Z" transform="translate(4.8 9.59)"/>
      <path d="M44.7,93.81A11.19,11.19,0,0,0,29.65,89l-6,3.09-9.92,5.11a11.18,11.18,0,0,0-4.85,15l167.88,328h48.36l-56.2-107.91Z" transform="translate(4.8 9.59)"/>
    </g>
    <g>
      <polygon points="229.92 449.82 229.92 449.82 49.49 103.4 173.72 341.92 229.92 449.82"/>
      <polygon points="335.58 342.51 460.14 103.39 279.68 449.82 279.68 449.82 335.58 342.51"/>
      <path class="cls-3" d="M38.22,120.17l17.93,5.67-5.67,17.93,3.34,6.41,17.92,5.66-5.66,17.93,3.33,6.41,17.94,5.67-5.67,17.93L85,210.19l17.93,5.66-5.67,17.93L108.8,259l6.53-1.86,39.18,77.65,53.18,105.4h17.43l-56.2-107.91L44.7,93.81A11.19,11.19,0,0,0,29.65,89l-6,3.09L35.5,114.92Z" transform="translate(4.8 9.59)"/>
      <path class="cls-3" d="M274.88,440.23h20.54l51-104.6,38.25-78.46,6.49,1.86,11.57-25.25-5.67-17.93L415,210.19l3.33-6.41-5.67-17.93,17.94-5.67,3.33-6.41-5.66-17.93,17.92-5.66,3.34-6.41-5.67-17.93,17.93-5.67,2.72-5.25,11.86-22.81-6-3.08a11.18,11.18,0,0,0-15,4.77L330.78,332.91Z" transform="translate(4.8 9.59)"/>
    </g>
    <g>
      <rect class="cls-4" x="53.06" y="253.32" width="111.45" height="24.5" rx="11.61" transform="translate(-105.37 89.64) rotate(-27.45)"/>
      <path class="cls-5" d="M70.72,286.54l-1.18-2.28a12.24,12.24,0,0,1,.71-12.47l-5.65,2.93a12.27,12.27,0,0,0-5.23,16.52h0a12.27,12.27,0,0,0,16.52,5.23l6.49-3.36A12.23,12.23,0,0,1,70.72,286.54Z" transform="translate(4.8 9.59)"/>
      <rect class="cls-4" x="378.92" y="209.85" width="24.5" height="111.45" rx="11.61" transform="translate(-20.03 499.88) rotate(-62.55)"/>
      <path class="cls-5" d="M429.28,286.54l1.18-2.28a12.24,12.24,0,0,0-.68-12.47l5.65,2.93a12.25,12.25,0,0,1,5.22,16.52h0a12.26,12.26,0,0,1-16.52,5.23l-6.48-3.36A12.24,12.24,0,0,0,429.28,286.54Z" transform="translate(4.8 9.59)"/>
    </g>
  </g>
  <g id="ninjaBody">
    <g>
      <path d="M250,500a232.76,232.76,0,0,0,182.27-87.75l-5.36-33.55a59.87,59.87,0,0,0-47.25-42.29L248.15,313.54,116.67,336.41A59.88,59.88,0,0,0,69.42,378.7L64.9,408.63A232.71,232.71,0,0,0,250,500Z" transform="translate(4.8 9.59)"/>
      <path class="cls-3" d="M303.74,331.7l-1.59-47.78A30.14,30.14,0,0,0,272,255.1H228.69a30.15,30.15,0,0,0-30.12,28.82L196.23,332C213.48,338.27,260.11,347.34,303.74,331.7Z" transform="translate(4.8 9.59)"/>
      <path d="M302.15,283.92a18.26,18.26,0,0,0-.14-1.85c-17.11,10.14-35.9,17.6-51.67,17.6h0c-12,0-25.68-4.31-39.07-10.8-4.25-2.08-8.48-4.36-12.6-6.8-.06.62-.12,1.25-.15,1.85l-.55,12.6-1.71,38A30.15,30.15,0,0,0,225,366q.67,0,1.35,0h13a30.15,30.15,0,0,1-30.15-30.15q0-.68,0-1.35l1.37-31.05c13.6,6.68,27.55,11.12,39.72,11.12h0c16,0,35-7.63,52.25-18Z" transform="translate(4.8 9.59)"/>
    </g>
  </g>
  <g id="ninjaHead">
    <path class="cls-3" d="M247.22,15.63h0A118.31,118.31,0,0,0,128.89,133.92h0c0,37.69,13.48,111.18,31.43,129.17,20.51,20.51,58.57,44.54,86.9,44.54h0c28.33,0,66.39-24,86.9-44.54,17.95-17.94,31.43-91.48,31.43-129.17A118.31,118.31,0,0,0,247.23,15.63Z" transform="translate(4.8 9.59)"/>
  </g>
  <g id="ninjaMask">
    <g>
      <polygon points="252.02 328.11 252.02 328.11 252.02 328.11 252.02 328.11"/>
      <path class="cls-6" d="M345.86,143.22c0-102.15-85.39-105.44-98.64-105.44s-98.64,3.29-98.64,105.44c0,16-5.08,15.43-5.08,27.31,0,19.95,33.79,57,33.79,72.7v6.89c0,20.53,23.16,30.11,69.93,30.11s69.94-9.58,69.94-30.11v-6.89c0-15.69,33.78-52.75,33.78-72.7C350.94,158.65,345.86,159.25,345.86,143.22ZM290.67,248.11H206.08L192,202.43l7-10.76,33.82,19.15h34.17l31.72-19.15,6.16,10.76Z" transform="translate(4.8 9.59)"/>
      <path class="cls-7" d="M191.54,250.12v-6.89c0-15.69-33.78-52.75-33.78-72.7,0-11.88,5.08-11.28,5.08-27.31,0-90.49,67-103.4,91.51-105.17-3.15-.22-5.62-.27-7.13-.27-13.25,0-98.64,3.29-98.64,105.44,0,16-5.08,15.43-5.08,27.31,0,19.95,33.79,57,33.79,72.7v6.89c0,20.53,23.16,30.11,69.93,30.11,2.45,0,4.82,0,7.13-.09C212.36,279.19,191.54,269.58,191.54,250.12Z" transform="translate(4.8 9.59)"/>
      <path class="cls-8" d="M336.7,203.11a.81.81,0,0,0-.18-1.56c-6.34-.85-20.25-4.13-25.28-16.77h0a10.69,10.69,0,0,0-21.1,2.44,10.44,10.44,0,0,0,.17,1.85h0a10.74,10.74,0,0,0,3.64,6.29C306.42,212.47,328.63,206.17,336.7,203.11Z" transform="translate(4.8 9.59)"/>
      <path class="cls-8" d="M157.74,203.11a.81.81,0,0,1,.18-1.56c6.34-.85,20.26-4.13,25.28-16.77h0a10.69,10.69,0,0,1,21.1,2.44,10.44,10.44,0,0,1-.17,1.85h0a10.78,10.78,0,0,1-3.63,6.29C188,212.47,165.82,206.17,157.74,203.11Z" transform="translate(4.8 9.59)"/>
      <path class="cls-5" d="M247.22,222.55a63.92,63.92,0,0,0,56.52-34,61.13,61.13,0,0,0-3.29-6.26c-11.54,12.61-31,20.92-53.23,20.92S205.53,194.9,194,182.32a59.22,59.22,0,0,0-3.29,6.26A63.93,63.93,0,0,0,247.22,222.55Z" transform="translate(4.8 9.59)"/>
      <rect class="cls-5" x="216.37" y="247.25" width="71.3" height="14.64" rx="6.94"/>
      <path class="cls-4" d="M336,37.73a1.46,1.46,0,0,0-2.78.33c-1.52,11.37-7.41,36.34-30.09,45.34h0A19.17,19.17,0,0,0,310.82,121h0a19.06,19.06,0,0,0,11.28-6.48C352.76,92.06,341.44,52.22,336,37.73Z" transform="translate(4.8 9.59)"/>
      <path class="cls-5" d="M336,37.73a1.46,1.46,0,0,0-2.78.33v0c4.82,18.3,7.46,47.78-17.29,65.88a19.24,19.24,0,0,1-11.28,6.49h-.05a20.86,20.86,0,0,1-3.35.3,19.09,19.09,0,0,1-12.47-4.63,19.06,19.06,0,0,0,22.09,14.77h0a19.13,19.13,0,0,0,11.28-6.49C352.76,92.06,341.44,52.22,336,37.73Z" transform="translate(4.8 9.59)"/>
      <path class="cls-4" d="M158.48,37.73a1.46,1.46,0,0,1,2.78.33c1.52,11.37,7.41,36.34,30.09,45.34h0A19.17,19.17,0,0,1,183.62,121h0a19.06,19.06,0,0,1-11.27-6.48C141.68,92.06,153,52.22,158.48,37.73Z" transform="translate(4.8 9.59)"/>
      <path class="cls-5" d="M158.48,37.73a1.46,1.46,0,0,1,2.78.33v0c-4.82,18.3-7.46,47.78,17.29,65.88a19.24,19.24,0,0,0,11.28,6.49h0a21,21,0,0,0,3.35.3,19.12,19.12,0,0,0,12.48-4.63,19.07,19.07,0,0,1-22.09,14.77h0a19.13,19.13,0,0,1-11.28-6.49C141.68,92.06,153,52.22,158.48,37.73Z" transform="translate(4.8 9.59)"/>
      <path class="cls-4" d="M336.7,203.11a.81.81,0,0,0-.18-1.56c-6.34-.85-20.25-4.13-25.28-16.77h0a10.69,10.69,0,0,0-21.1,2.44,10.44,10.44,0,0,0,.17,1.85h0a10.74,10.74,0,0,0,3.64,6.29C306.42,212.47,328.63,206.17,336.7,203.11Z" transform="translate(4.8 9.59)"/>
      <path class="cls-4" d="M157.74,203.11a.81.81,0,0,1,.18-1.56c6.34-.85,20.26-4.13,25.28-16.77h0a10.69,10.69,0,0,1,21.1,2.44,10.44,10.44,0,0,1-.17,1.85h0a10.78,10.78,0,0,1-3.63,6.29C188,212.47,165.82,206.17,157.74,203.11Z" transform="translate(4.8 9.59)"/>
      <path class="cls-4" d="M293,216.48a.7.7,0,0,0-1.36.16c-.74,5.56-3.62,17.71-14.67,22.1h0a9.35,9.35,0,0,0,3.76,18.31h0a9.31,9.31,0,0,0,5.5-3.17C301.22,242.93,295.7,223.51,293,216.48Z" transform="translate(4.8 9.59)"/>
      <path class="cls-4" d="M201.41,216.48a.69.69,0,0,1,.9-.42.68.68,0,0,1,.46.58c.75,5.56,3.62,17.71,14.67,22.1h0a9.35,9.35,0,0,1-3.76,18.31h0a9.29,9.29,0,0,1-5.49-3.17C193.22,242.93,198.74,223.51,201.41,216.48Z" transform="translate(4.8 9.59)"/>
      <rect class="cls-7" x="163.98" y="135.01" width="176.09" height="13.94" rx="6.61"/>
      <rect class="cls-7" x="230.74" y="144.77" width="42.55" height="37.12"/>
      <path class="cls-4" d="M238.22,139.36a33.43,33.43,0,0,1-66.85,0Z" transform="translate(4.8 9.59)"/>
      <path class="cls-5" d="M184,139.36H171.37a33.42,33.42,0,0,0,39.72,32.82A33.44,33.44,0,0,1,184,139.36Z" transform="translate(4.8 9.59)"/>
      <path class="cls-4" d="M323.07,139.36a33.43,33.43,0,0,1-66.85,0Z" transform="translate(4.8 9.59)"/>
      <path class="cls-5" d="M268.83,139.36H256.22A33.38,33.38,0,0,0,296,172.18,33.43,33.43,0,0,1,268.83,139.36Z" transform="translate(4.8 9.59)"/>
      <path class="cls-7" d="M272.55,163.34a15.06,15.06,0,0,0-7.68,2.13,23,23,0,0,0-32.45-2.39,23.71,23.71,0,0,0-2.54,2.57,15.11,15.11,0,1,0-2.12,26.74,23,23,0,0,0,39.33.14,15.16,15.16,0,1,0,6.23-29.17h-.75Z" transform="translate(4.8 9.59)"/>
      <path class="cls-9" d="M272.55,182.2a14.86,14.86,0,0,1-5.47-1,23,23,0,0,1-39.34-.14A15.08,15.08,0,0,1,208,173l-.09-.22a15.09,15.09,0,0,0,19.87,19.63,23,23,0,0,0,39.33.14,15.06,15.06,0,0,0,20.59-14,15,15,0,0,0-1.11-5.72A15.11,15.11,0,0,1,272.55,182.2Z" transform="translate(4.8 9.59)"/>
    </g>
  </g>
</svg>

