<svg version="1.1" xmlns="http://www.w3.org/2000/svg" xmlns:xlink="http://www.w3.org/1999/xlink" x="0px" y="0px"
	 viewBox="0 0 500 500" style="enable-background:new 0 0 500 500;" xml:space="preserve">
<style type="text/css">
	.st0{fill:#93EDE7;}
	.st1{fill:#C1F8F4;}
	.st2{fill:#FF3C3C;}
	.st3{fill:#F9EF63;}
	.st4{fill:#00AFF4;}
	.st5{fill:#6E64C3;}
	.st6{fill:#5A915A;}
	.st7{fill:#8BC852;}
	.st8{fill:#DC1428;}
	.st9{fill:#F4DD45;}
	.st10{fill:#70C6DA;}
	.st11{fill:#5046AF;}
	.st12{fill:#FFFFFF;}
	.st13{fill:#DAFFFB;}

#backcloud{
  -webkit-animation: transl 10s infinite;
  animation: transl 10s infinite;
}

#topcloud{
  -webkit-animation: transl 8s infinite;
  animation: transl 8s infinite;
}

@-webkit-keyframes transl {
    0% {
      -webkit-transform: translateX(0px) scale(1);
      transform: translateX(0px) scale(1);
    }
    50% {
      -webkit-transform: translateX(-20px) scale(1.02);
      transform: translateX(-20px) scale(1.02);
    }
  }
  
  @keyframes transl {  
    0% {
      -webkit-transform: translateX(0px) scale(1);
      -ms-transform: translateX(0px) scale(1);
      transform: translateX(0px) scale(1);
    }
    50% {
      -webkit-transform: translateX(-20px) scale(1.02);
      -ms-transform: translateX(-20px) scale(1.02);
      transform: translateX(-20px) scale(1.02);
    }
  }
</style>
<g id="bg">
	<circle class="st0" cx="246.5" cy="257.8" r="205.8"/>
	<path class="st1" d="M246.5,52c-53.1,0-101.5,20.1-137.9,53.1c-0.9,8.1-1.4,16.4-1.4,24.8c0,120,97.3,217.3,217.3,217.3
		c44.8,0,86.5-13.6,121.1-36.8c4.4-16.8,6.8-34.4,6.8-52.5C452.3,144.2,360.2,52,246.5,52z"/>
	<g>
		<path class="st2" d="M272.9,72.6c-81,0-146.7,65.7-146.7,146.7c0,10.4,1.1,20.6,3.2,30.4h22c-2.4-9.7-3.7-19.9-3.7-30.4
			c0-69.2,56.1-125.3,125.3-125.3c69.2,0,125.3,56.1,125.3,125.3h21.4C419.6,138.3,353.9,72.6,272.9,72.6z"/>
		<path class="st3" d="M272.9,94c-69.2,0-125.3,56.1-125.3,125.3c0,10.5,1.3,20.6,3.7,30.4H176c-3-9.6-4.6-19.8-4.6-30.4
			c0-56.1,45.4-101.5,101.5-101.5c56.1,0,101.5,45.4,101.5,101.5h23.8C398.2,150.1,342.1,94,272.9,94z"/>
		<path class="st4" d="M272.9,117.8c-56.1,0-101.5,45.4-101.5,101.5c0,10.6,1.6,20.8,4.6,30.4h22.8c-3.8-9.4-6-19.6-6-30.4
			c0-44.2,35.9-80.1,80.1-80.1c44.2,0,80.1,35.9,80.1,80.1h21.4C374.4,163.3,329,117.8,272.9,117.8z"/>
		<path class="st5" d="M272.9,139.2c-44.2,0-80.1,35.9-80.1,80.1c0,10.7,2.1,21,6,30.4h28.6c-5.8-8.7-9.2-19.1-9.2-30.4
			c0-30.2,24.5-54.7,54.7-54.7c30.2,0,54.7,24.5,54.7,54.7H353C353,175.1,317.1,139.2,272.9,139.2z"/>
	</g>
	<path class="st0" d="M391.5,403.9c-43.8-11.5-89.8-17.7-137.2-17.7c-51.8,0-101.9,7.3-149.3,21c36.9,35,86.7,56.4,141.5,56.4
		C303.1,463.6,354.3,440.8,391.5,403.9z"/>
	<path class="st1" d="M254.3,386.2c-11.9,0-23.6,0.4-35.3,1.2c35.5,29.2,80.4,47.4,129.5,49.2c15.7-9,30.2-20,42.9-32.7
		C347.7,392.3,301.7,386.2,254.3,386.2z"/>
	<path class="st6" d="M391.5,403.9c28.5-28.3,48.8-64.9,56.9-105.8L202.3,140.6l-157.9,156c8.2,43.2,30,81.5,60.6,110.6
		c47.4-13.7,97.5-21,149.3-21C301.7,386.2,347.7,392.3,391.5,403.9z"/>
	<path class="st7" d="M202.3,140.6l-77.1,76.1c33.5,76.8,110.1,130.4,199.2,130.4c44.8,0,86.5-13.6,121.1-36.8c1.1-4,2-8.1,2.8-12.3
		L202.3,140.6z"/>
	<g>
		<path class="st8" d="M272.9,94V72.6c-81,0-146.7,65.7-146.7,146.7c0,10.4,1.1,20.6,3.2,30.4h22c-2.4-9.7-3.7-19.9-3.7-30.4
			C147.6,150.1,203.7,94,272.9,94z"/>
		<path class="st9" d="M272.9,117.8V94c-69.2,0-125.3,56.1-125.3,125.3c0,10.5,1.3,20.6,3.7,30.4H176c-3-9.6-4.6-19.8-4.6-30.4
			C171.4,163.3,216.8,117.8,272.9,117.8z"/>
		<path class="st10" d="M272.9,139.2v-21.4c-56.1,0-101.5,45.4-101.5,101.5c0,10.6,1.6,20.8,4.6,30.4h22.8c-3.8-9.4-6-19.6-6-30.4
			C192.8,175.1,228.7,139.2,272.9,139.2z"/>
		<path class="st11" d="M192.8,219.3c0,10.7,2.1,21,6,30.4h28.6c-5.8-8.7-9.2-19.1-9.2-30.4c0-30.2,24.5-54.7,54.7-54.7v-25.4
			C228.7,139.2,192.8,175.1,192.8,219.3z"/>
	</g>
</g>
<g id="backcloud">
	<path class="st12" d="M456.6,211.4c0-0.7,0.1-1.4,0.1-2.1c0-21.1-17.1-38.2-38.2-38.2c-5.1,0-9.9,1-14.3,2.8
		c-0.1-0.2-0.2-0.3-0.3-0.5c-0.3-0.5-0.6-1.1-1-1.6c0,0,0,0,0,0c0,0,0-0.1-0.1-0.1c0,0,0,0,0,0c0,0,0,0,0-0.1
		c-0.9-1.3-1.8-2.6-2.9-3.8c0,0,0,0,0,0c0,0,0,0,0,0c0,0-0.1-0.1-0.1-0.1c0,0,0,0,0,0c-0.5-0.6-1-1.2-1.6-1.7c0,0,0,0,0,0
		c0,0-0.1-0.1-0.1-0.1l0,0c0,0,0,0,0,0c-2.2-2.3-4.7-4.2-7.4-5.9c-0.1-0.1-0.2-0.2-0.3-0.2c0,0,0,0,0,0c0,0-0.1,0-0.1-0.1
		c0,0,0,0,0,0c-0.6-0.4-1.3-0.7-1.9-1.1c0,0,0,0,0,0c-1.1-0.5-2.1-1-3.2-1.5c-0.5-0.2-1-0.4-1.5-0.6c0,0,0,0,0,0
		c-0.1,0-0.3-0.1-0.4-0.1c0,0,0,0,0,0c-0.3-0.1-0.6-0.2-0.9-0.3c-3.7-1.2-7.6-1.8-11.6-1.8c-21.1,0-38.2,17.1-38.2,38.2
		c0,6.4,1.6,12.4,4.4,17.7c-8.5,2.7-14.8,10.6-14.8,20c0,0.7,0,1.4,0.1,2.1c0,0.4,0.1,0.8,0.2,1.2c0,0.3,0.1,0.6,0.1,0.8h0
		c1.9,9.6,10.4,16.8,20.6,16.8h104.4c11.6,0,21-9.4,21-21C468.4,222,463.6,214.8,456.6,211.4z"/>
</g>
<g id="arreglo">
	<path class="st7" d="M305.3,206.5v139.8c6.3,0.6,12.7,0.8,19.2,0.8c44.8,0,86.5-13.6,121.1-36.8c1.1-4,2-8.1,2.8-12.3L305.3,206.5z
		"/>
</g>
<g id="topcloud">
	<g>
		<path class="st13" d="M276.5,259c3.5-6.6,5.4-14.1,5.4-22.1c0-26.3-21.3-47.7-47.7-47.7c-17.9,0-33.5,9.9-41.6,24.4
			c-5.5-2.2-11.6-3.5-17.9-3.5c-26.3,0-47.7,21.3-47.7,47.7c0,0.9,0,1.8,0.1,2.6c-8.7,4.2-14.7,13.2-14.7,23.5
			c0,14.4,11.7,26.1,26.1,26.1h130.1c14.4,0,26.1-11.7,26.1-26.1C294.9,272.2,287.2,262.3,276.5,259z"/>
		<path class="st12" d="M276.5,259c3.5-6.6,5.4-14.1,5.4-22.1c0-26.3-21.3-47.7-47.7-47.7c-1,0-2,0-3,0.1c-0.3,0-0.6,0-0.9,0.1
			c-0.8,0.1-1.5,0.1-2.2,0.2c-0.3,0-0.5,0.1-0.8,0.1c-1,0.1-1.9,0.3-2.9,0.5c-0.1,0-0.2,0.1-0.3,0.1c-0.8,0.2-1.7,0.4-2.5,0.6
			c-0.3,0.1-0.5,0.1-0.8,0.2c-0.8,0.2-1.5,0.5-2.2,0.7c-0.2,0.1-0.3,0.1-0.5,0.2c-0.9,0.3-1.8,0.7-2.7,1.1c-0.1,0-0.2,0.1-0.3,0.2
			c-0.8,0.3-1.5,0.7-2.3,1.1c-0.2,0.1-0.4,0.2-0.6,0.3c-0.8,0.4-1.6,0.9-2.4,1.3c0,0-0.1,0-0.1,0.1c-0.9,0.5-1.7,1.1-2.5,1.6
			c-0.1,0.1-0.2,0.1-0.2,0.2c-0.7,0.5-1.5,1-2.2,1.6c-0.1,0.1-0.2,0.2-0.3,0.2c-1.6,1.2-3,2.6-4.4,4c0,0-0.1,0.1-0.1,0.1
			c-0.7,0.7-1.3,1.4-1.9,2.1c0,0-0.1,0.1-0.1,0.1c-1.3,1.5-2.5,3.2-3.6,4.9c0,0-0.1,0.1-0.1,0.1c-0.5,0.8-1.1,1.7-1.6,2.6
			c-3.8,6.9-6,14.8-6,23.2c0,0.9,0,1.9,0.1,2.8c-8.5,4.3-14.4,13.1-14.4,23.3c0,14.4,11.7,26.1,26.1,26.1h95.9
			c0.3-1.7,0.5-3.4,0.5-5.2C294.9,272.2,287.2,262.3,276.5,259z"/>
	</g>
</g>
</svg>
