<svg xmlns="http://www.w3.org/2000/svg" viewBox="0 0 466.16 471.28">
  <defs>
    <style>
      .cls-1 {
        fill: #1a1a1a;
      }

      .cls-2 {
        fill: #508c2c;
      }

      .cls-3 {
        fill: #8cc951;
      }

      .cls-4 {
        fill: #41751f;
      }

      .cls-5 {
        fill: #5ba037;
      }

      .cls-6 {
        fill: #ffbb16;
      }

      .cls-7 {
        fill: #2d2420;
      }

      .cls-8 {
        fill: #ff931f;
      }

        #ocico{
  -webkit-animation: ocico 10s infinite;
  animation: ocico 10s infinite;
}

#eyes{
  -webkit-animation: eyes 5s infinite;
  animation: eyes 5s infinite;
}

#mandibula{
  -webkit-animation: mandibula 1s infinite;
  animation: mandibula 1s infinite;
}

#head{
  -webkit-animation: head 1s infinite;
  animation: head 1s infinite;
}


@keyframes mandibula {
    0% {
      -webkit-transform: translateY(0px) scaleY(1);
      -ms-transform: translateY(0px) scaleY(1);
      transform: translateY(0px) scaleY(1);
    }
  
    50% {
      -webkit-transform: translateY(-40px) scaleY(1.3);
      -ms-transform: translateY(-40px) scaleY(1.3);
      transform: translateY(-40px) scaleY(1.3);
    }}

@keyframes head{
    0% {
      -webkit-transform: translateY(0px) scaleY(1);
      -ms-transform: translateY(0px) scaleY(1);
      transform: translateY(0px) scaleY(1);
    }
  
    50% {
      -webkit-transform: translateY(5px) scaleY(.95);
      -ms-transform: translateY(5px) scaleY(.95);
      transform: translateY(5px) scaleY(.95);
    }}

    @keyframes eyes {
    0% {
      -webkit-transform: scaleY(1);
      -ms-transform: scaleY(1);
      transform: scaleY(1);
    }
  
    15% {
      -webkit-transform: scaleY(.95);
      -ms-transform: scaleY(.95);
      transform: scaleY(.95);
    }
    20% {
      -webkit-transform: scaleY(1);
      -ms-transform: scaleY(1);
      transform: scaleY(1);
    }
  
    }

    </style>
  </defs>
  <g id="ranabg">
    <circle class="cls-1" cx="233.08" cy="238.2" r="233.08"/>
  </g>
  <g id="body">
    <g>
      <path class="cls-2" d="M250,245.34a158.19,158.19,0,0,0-71.61,17.16h0l-.13.06L175.44,264c-.55.29-1.09.59-1.63.89s-1.13.61-1.68.93l-1.65.93c-.6.34-1.2.69-1.79,1.05-.79.46-1.58.94-2.36,1.42s-1.28.78-1.91,1.18l-1.59,1-1.6,1.05-1.57,1.05-2,1.37c-.72.5-1.43,1-2.14,1.52l-1.68,1.23-1.51,1.13L150.79,280c-.48.37-1,.74-1.43,1.12-.88.7-1.75,1.4-2.62,2.12l-1.34,1.12-1.58,1.35-1.39,1.21-1.59,1.42-1.25,1.13c-.84.77-1.67,1.56-2.5,2.35L135.83,293l-1.51,1.48-1.26,1.27-1.7,1.75-1.52,1.61c-.61.65-1.22,1.31-1.82,2l-1.16,1.29-1.47,1.67-1.11,1.28c-.69.82-1.39,1.64-2.07,2.47l-1.08,1.33c-.53.65-1.06,1.31-1.58,2l-1,1.33-1.45,1.91-.92,1.23c-.72,1-1.44,2-2.14,2.95-.28.39-.56.79-.83,1.19-.49.69-1,1.38-1.44,2.07l-.91,1.35c-.49.74-1,1.48-1.46,2.23-.24.36-.48.72-.71,1.08-.67,1-1.32,2.11-2,3.17-.25.42-.5.84-.76,1.26l-1.32,2.23-.77,1.32c-.53.93-1,1.86-1.57,2.79-.18.34-.36.67-.55,1-.55,1-1.1,2.05-1.64,3.08l-.67,1.31c-.41.81-.82,1.62-1.22,2.43-.21.42-.42.84-.62,1.26q-.85,1.74-1.68,3.51l-.38.86q-.66,1.43-1.29,2.88c-.2.43-.38.87-.57,1.31-.39.9-.77,1.8-1.14,2.71L92,358.71c-.5,1.23-1,2.46-1.46,3.7-.14.36-.27.71-.4,1.06-.36.95-.71,1.91-1,2.87-.16.43-.32.87-.47,1.31-.36,1-.71,2.06-1.06,3.09-.09.29-.19.57-.29.85-.42,1.28-.83,2.58-1.23,3.88-.12.39-.23.78-.35,1.17-.29,1-.58,2-.86,2.95l-.36,1.27c-.35,1.25-.69,2.52-1,3.79,0,.1,0,.2-.08.31-.34,1.33-.66,2.66-1,4-.1.42-.2.84-.29,1.25-.24,1-.46,2.06-.68,3.09-.08.39-.17.79-.25,1.18-.28,1.38-.56,2.75-.81,4.14l-.12.68c-.22,1.18-.42,2.37-.62,3.56l-.21,1.3c-.17,1.1-.33,2.21-.49,3.31l-.15,1c-.19,1.41-.37,2.83-.53,4.25,0,.33-.07.66-.11,1-.13,1.13-.24,2.27-.35,3.41l-.12,1.3c-.11,1.23-.21,2.46-.3,3.7,0,.23,0,.46-.05.69l0,.63A233.55,233.55,0,0,0,119,459.74l.51-2c-.17.67-.33,1.35-.5,2a233,233,0,0,0,303.64-36.29C416.22,323.89,341.38,245.34,250,245.34Z" transform="translate(-16.92 -28.72)"/>
      <path class="cls-3" d="M250,348.91a124.59,124.59,0,0,0-61.64,16.38h0A244.11,244.11,0,0,0,290,496.56a231.6,231.6,0,0,0,91-36.82C365.23,395.86,312.56,348.91,250,348.91Z" transform="translate(-16.92 -28.72)"/>
      <path class="cls-4" d="M119.82,456.68c.32-1.21.66-2.4,1-3.59.1-.37.21-.74.32-1.11.44-1.48.9-3,1.38-4.4l.16-.46c.44-1.31.9-2.61,1.37-3.9.13-.38.27-.76.41-1.14.47-1.26,1-2.51,1.46-3.76.07-.17.13-.35.2-.52.58-1.42,1.17-2.81,1.78-4.2.14-.32.29-.64.43-1,.51-1.12,1-2.24,1.55-3.36.15-.3.29-.61.44-.91.66-1.36,1.33-2.71,2-4.05l.27-.51q.93-1.76,1.89-3.48c.18-.33.36-.65.55-1,.7-1.24,1.41-2.46,2.14-3.67l.12-.2q1.17-1.92,2.4-3.81l.55-.84c.69-1,1.38-2.08,2.09-3.1l.48-.69q1.29-1.85,2.63-3.63l.37-.48c.78-1,1.57-2.06,2.37-3.07l.63-.78q2.81-3.46,5.78-6.73l.64-.69c.86-.94,1.73-1.86,2.62-2.76l.47-.49q1.56-1.57,3.16-3.11l.46-.44c.93-.87,1.87-1.73,2.81-2.58l.68-.61q3.3-2.91,6.76-5.6l.72-.55c1-.79,2.07-1.57,3.12-2.33l.4-.29c1.2-.86,2.41-1.69,3.63-2.51l.58-.38c1-.69,2.1-1.37,3.17-2,.24-.15.47-.3.72-.44q1.88-1.16,3.79-2.25a244.28,244.28,0,0,1-10-102.79l-.13.06L175.44,264c-.55.29-1.09.59-1.63.89s-1.13.61-1.68.93l-1.65.93c-.6.34-1.2.69-1.79,1.05-.79.46-1.58.94-2.36,1.42s-1.28.78-1.91,1.18l-1.59,1-1.6,1.05-1.57,1.05-2,1.37c-.72.5-1.43,1-2.14,1.52l-1.68,1.23-1.51,1.13L150.79,280c-.48.37-1,.74-1.43,1.12-.88.7-1.75,1.4-2.62,2.12l-1.34,1.12-1.58,1.35-1.39,1.21-1.59,1.42-1.25,1.13c-.84.77-1.67,1.56-2.5,2.35L135.83,293l-1.51,1.48-1.26,1.27-1.7,1.75-1.52,1.61c-.61.65-1.22,1.31-1.82,2l-1.16,1.29-1.47,1.67-1.11,1.28c-.69.82-1.39,1.64-2.07,2.47l-1.08,1.33c-.53.65-1.06,1.31-1.58,2l-1,1.33-1.45,1.91-.92,1.23c-.72,1-1.44,2-2.14,2.95-.28.39-.56.79-.83,1.19-.49.69-1,1.38-1.44,2.07l-.91,1.35c-.49.74-1,1.48-1.46,2.23-.24.36-.48.72-.71,1.08-.67,1-1.32,2.11-2,3.17-.25.42-.5.84-.76,1.26l-1.32,2.23-.77,1.32c-.53.93-1,1.86-1.57,2.79-.18.34-.36.67-.55,1-.55,1-1.1,2.05-1.64,3.08l-.67,1.31c-.41.81-.82,1.62-1.22,2.43-.21.42-.42.84-.62,1.26q-.85,1.74-1.68,3.51l-.38.86q-.66,1.43-1.29,2.88c-.2.43-.38.87-.57,1.31-.39.9-.77,1.8-1.14,2.71L92,358.71c-.5,1.23-1,2.46-1.46,3.7-.14.36-.27.71-.4,1.06-.36.95-.71,1.91-1,2.87-.16.43-.32.87-.47,1.31-.36,1-.71,2.06-1.06,3.09-.09.29-.19.57-.29.85-.42,1.28-.83,2.58-1.23,3.88-.12.39-.23.78-.35,1.17-.29,1-.58,2-.86,2.95l-.36,1.27c-.35,1.25-.69,2.52-1,3.79,0,.1,0,.2-.08.31-.34,1.33-.66,2.66-1,4-.1.42-.2.84-.29,1.25-.24,1-.46,2.06-.68,3.09-.08.39-.17.79-.25,1.18-.28,1.38-.56,2.75-.81,4.14l-.12.68c-.22,1.18-.42,2.37-.62,3.56l-.21,1.3c-.17,1.1-.33,2.21-.49,3.31l-.15,1c-.19,1.41-.37,2.83-.53,4.25,0,.33-.07.66-.11,1-.13,1.13-.24,2.27-.35,3.41l-.12,1.3c-.11,1.23-.21,2.46-.3,3.7,0,.23,0,.46-.05.69l0,.63A233.55,233.55,0,0,0,119,459.74l.51-2C119.63,457.38,119.73,457,119.82,456.68Z" transform="translate(-16.92 -28.72)"/>
      <path class="cls-5" d="M188.36,365.29q-1.92,1.09-3.79,2.25c-.25.14-.48.29-.72.44-1.07.66-2.12,1.34-3.17,2l-.58.38c-1.22.82-2.43,1.65-3.63,2.51l-.4.29c-1,.76-2.09,1.54-3.12,2.33l-.72.55q-3.47,2.69-6.76,5.6l-.68.61c-.94.85-1.88,1.71-2.81,2.58l-.46.44q-1.61,1.53-3.16,3.11l-.47.49c-.89.9-1.76,1.82-2.62,2.76l-.64.69q-3,3.27-5.78,6.73l-.63.78c-.8,1-1.59,2-2.37,3.07l-.37.48q-1.33,1.79-2.63,3.63l-.48.69c-.71,1-1.4,2.06-2.09,3.1l-.55.84q-1.23,1.89-2.4,3.81l-.12.2c-.73,1.21-1.44,2.43-2.14,3.67-.19.32-.37.64-.55,1q-1,1.73-1.89,3.48l-.27.51c-.7,1.34-1.37,2.69-2,4.05-.15.3-.29.61-.44.91-.53,1.12-1,2.24-1.55,3.36-.14.33-.29.65-.43,1-.61,1.39-1.2,2.78-1.78,4.2-.07.17-.13.35-.2.52-.5,1.25-1,2.5-1.46,3.76-.14.38-.28.76-.41,1.14-.47,1.29-.93,2.59-1.37,3.9l-.16.46c-.48,1.45-.94,2.92-1.38,4.4-.11.37-.22.74-.32,1.11-.35,1.19-.69,2.38-1,3.59-.09.35-.19.7-.28,1.05-.17.67-.33,1.35-.5,2a233.47,233.47,0,0,0,171,36.81A244.11,244.11,0,0,1,188.36,365.29Z" transform="translate(-16.92 -28.72)"/>
    </g>
  </g>
  <g id="head">
    <g>
      <path class="cls-5" d="M415,149.23c-16.67-21.28-16.67-68.8-16.67-68.8A49.9,49.9,0,0,0,314.6,43.69,80.31,80.31,0,0,1,250,76.21a80.35,80.35,0,0,1-66.48-35.16c.61.89,1.24,1.77,1.88,2.64a49.9,49.9,0,0,0-83.68,36.74s0,47.52-16.67,68.8C60,181.15,82,202.82,82,202.82S117.28,262.5,250,262.5s168.05-59.68,168.05-59.68S440,181.15,415,149.23Z" transform="translate(-16.92 -28.72)"/>
      <path class="cls-2" d="M132.89,192a45.91,45.91,0,0,1,.51-23.68c4.68-16.85,16.72-29.32,16.26-38C149.05,118.83,118,84.79,103,69.05h0c-.21.88-.39,1.77-.55,2.67l0,.18c-.14.82-.26,1.64-.36,2.47,0,.14,0,.27,0,.41-.09.76-.15,1.53-.21,2.3,0,.18,0,.37,0,.55,0,.93-.08,1.86-.08,2.8,0,0,0,47.52-16.67,68.8C60,181.15,82,202.82,82,202.82l.19.29v0a2.36,2.36,0,0,1,.13.2l0,0a2.79,2.79,0,0,0,.17.25l0,0c.06.1.13.2.21.31l0,.05c.08.12.16.24.26.37l0,0c.09.14.2.28.31.44h0c5.62,7.69,29.15,35,87.68,49.1C146.18,230.14,135.37,202.19,132.89,192Z" transform="translate(-16.92 -28.72)"/>
      <g>
        <path class="cls-2" d="M229.1,145.2a4.2,4.2,0,0,1-3-7.17,5,5,0,0,0,0-7.13,5.16,5.16,0,0,0-7.12,0,4.2,4.2,0,0,1-5.95-5.94,13.45,13.45,0,0,1,19,19A4.22,4.22,0,0,1,229.1,145.2Z" transform="translate(-16.92 -28.72)"/>
        <path class="cls-2" d="M267.85,145.2a4.2,4.2,0,0,0,3-7.17,5,5,0,0,1,0-7.13,5.17,5.17,0,0,1,7.13,0,4.2,4.2,0,0,0,5.94-5.94,13.44,13.44,0,0,0-19,19A4.18,4.18,0,0,0,267.85,145.2Z" transform="translate(-16.92 -28.72)"/>
      </g>
    </g>
  </g>
  <g id="mandibula">
    <g>
      <g>
        <path class="cls-3" d="M250,157.1c-105.85,0-166.9,20-166.9,43.92,0,37.53,75.06,90.24,166.9,90.24S416.9,238.55,416.9,201C416.9,177.06,355.85,157.1,250,157.1Z" transform="translate(-16.92 -28.72)"/>
        <path class="cls-5" d="M171,254c-24.86-23.84-35.67-51.79-38.15-61.94a45.91,45.91,0,0,1,.51-23.68c-32.68,8.09-50.3,19.8-50.3,32.66a29.8,29.8,0,0,0,.26,3.86c4.84,37.18,77.91,86.38,166.64,86.38l1.66,0C215.52,287,189.43,271.62,171,254Z" transform="translate(-16.92 -28.72)"/>
      </g>
      <path class="cls-5" d="M350.23,187.65a4.44,4.44,0,0,1-1-.12,421,421,0,0,0-198.42,0,4.2,4.2,0,0,1-2-8.16c65.28-16.13,137.18-16.13,202.46,0a4.2,4.2,0,0,1-1,8.28Z" transform="translate(-16.92 -28.72)"/>
    </g>
  </g>
  <g id="eyes">
    <g>
      <g>
        <circle class="cls-6" cx="332.99" cy="51.71" r="51.71"/>
        <circle class="cls-6" cx="133.16" cy="51.71" r="51.71"/>
      </g>
      <g>
        <path class="cls-7" d="M358.07,86.71a3,3,0,0,1-2.51-1.35c-.93-1.41-2.38-3.11-4-3.13h0c-2,0-4.1,2.36-4.69,3.2A3,3,0,0,1,342,82c.41-.59,4.15-5.77,9.61-5.77h.09c3.38,0,6.38,2,8.92,5.82a3,3,0,0,1-.85,4.16A3,3,0,0,1,358.07,86.71Z" transform="translate(-16.92 -28.72)"/>
        <path class="cls-7" d="M154.75,86.71a3,3,0,0,1-2.51-1.35c-.94-1.41-2.39-3.11-4-3.13-2,0-4.14,2.36-4.73,3.2A3,3,0,0,1,138.62,82c.42-.6,4.16-5.83,9.71-5.77,3.38,0,6.38,2,8.91,5.82a3,3,0,0,1-2.49,4.66Z" transform="translate(-16.92 -28.72)"/>
      </g>
      <path class="cls-8" d="M349.49,28.73a51.7,51.7,0,0,0,0,103.4c-11.15-12.44-18.24-31-18.24-51.7S338.34,41.18,349.49,28.73Z" transform="translate(-16.92 -28.72)"/>
      <path class="cls-8" d="M149.66,28.73a51.7,51.7,0,0,0,0,103.4c-11.15-12.44-18.24-31-18.24-51.7S138.51,41.18,149.66,28.73Z" transform="translate(-16.92 -28.72)"/>
    </g>
  </g>
</svg>
