<svg id="Layer_1" data-name="Layer 1" xmlns="http://www.w3.org/2000/svg" viewBox="0 0 550 550"><defs><style>.cls-1{fill:#4f5d87;}.cls-2,.cls-4{fill:none;}.cls-3{fill:#f46d99;}.cls-4{stroke:#f45656;stroke-linecap:round;stroke-miterlimit:10;stroke-width:15px;}.cls-5{fill:#49bbd5;}.cls-6{fill:#92d6de;}.cls-7{fill:#c3e8eb;}</style></defs><circle class="cls-1" cx="275" cy="298.44" r="251.56"/><rect class="cls-2" width="550" height="550"/><rect x="193.22" y="215.11" width="159.78" height="102.95"/><path class="cls-3" d="M386.26,114.59a46.69,46.69,0,0,0-59.34-64A42.79,42.79,0,1,0,302,113.45a46.84,46.84,0,0,0,9.35,13.42,46.7,46.7,0,1,0,74.89-12.28Z"/><path class="cls-4" d="M391.92,149.78c0-4.45,1.52-8.54-2.44-10.6l-22.89-14a12,12,0,0,0-7.91-1.1l-22.41,4.58A12,12,0,0,1,322,118.22l-2.52-23.68A11.93,11.93,0,0,0,311,84.36l-26.84-8a12,12,0,0,1-8.53-11.45V39.57c0-4.84-4.12-4.62-8.95-4.27"/><path class="cls-3" d="M275,274.87h0a54.49,54.49,0,0,0-47.22,27.27h94.44A54.49,54.49,0,0,0,275,274.87Z"/><path class="cls-5" d="M385.14,379.71h-50.4a10.21,10.21,0,0,1-10.21-10.2v-45.4c0-30.12-99.06-30.12-99.06,0v45.4a10.21,10.21,0,0,1-10.21,10.2h-50.4a91.44,91.44,0,0,0-89.34,72c46,59.78,124.11,18.63,205.37,18.63s147.6,41.15,193.59-18.63A91.44,91.44,0,0,0,385.14,379.71Z"/><circle class="cls-6" cx="399.92" cy="207.76" r="42.32"/><circle class="cls-5" cx="150.91" cy="207.76" r="42.32"/><path class="cls-7" d="M393.48,139.18l-26.89-14a12,12,0,0,0-7.91-1.1l-22.41,4.58A12,12,0,0,1,322,118.22l-2.52-23.68A11.93,11.93,0,0,0,311,84.36l-26.84-8a12,12,0,0,1-8.53-11.45V35.57a8.31,8.31,0,0,0-8.95-8.27,124.28,124.28,0,0,0-115.33,124v78.43A124.28,124.28,0,0,0,275.64,354h0A124.28,124.28,0,0,0,399.92,229.69V149.78A12,12,0,0,0,393.48,139.18Zm-62,111.31a57,57,0,0,1-113,0,7,7,0,0,1,6.86-8h99.24A7,7,0,0,1,331.48,250.49Z"/><path d="M170.7,379.71h-5.84a91.44,91.44,0,0,0-89.34,72,251.53,251.53,0,0,0,398.66.38,370.09,370.09,0,0,1-74.26,7.48A367.34,367.34,0,0,1,170.7,379.71Z"/><path class="cls-5" d="M331.51,250.08c0,.14,0,.27,0,.41A57.12,57.12,0,0,1,291.79,297a10,10,0,0,0,5.84,6.74c1.06.23,2.1.47,3.13.74l.72,0a10,10,0,0,1,10,10v5.15a10,10,0,0,0,10,10h0a10,10,0,0,0,10-10V250.08Z"/></svg>