<svg id="Layer_1" data-name="Layer 1" xmlns="http://www.w3.org/2000/svg" viewBox="0 0 550 550"><defs><style>.cls-1{fill:#f24a4b;}.cls-2{fill:none;}.cls-3{fill:#232323;}.cls-4{fill:#fdd013;}.cls-5{fill:#fbb010;}.cls-6{fill:#f1f4f5;}.cls-7{fill:#dce8ec;}.cls-8{fill:#fff;}.cls-9{fill:#c4dae5;}</style></defs><circle class="cls-1" cx="275" cy="298.44" r="251.56"/><rect class="cls-2" width="550" height="550"/><path class="cls-3" d="M307.53,625.75l-20.71,10.67a12.08,12.08,0,0,1-16.29-5.26L14.71,131.5A12.07,12.07,0,0,1,20,115.3l17.18-8.85a12.08,12.08,0,0,1,16.24,5.15L312.71,609.44A12.07,12.07,0,0,1,307.53,625.75Z"/><path d="M110.16,262.67l6.12-19.35-19.35-6.11-3.6-6.92,6.12-19.35-19.36-6.12L76.5,197.9l6.11-19.35-19.35-6.11-3.6-6.92,6.12-19.35-19.35-6.12-2.94-5.66-12.8-24.62L20,115.3a12.07,12.07,0,0,0-5.24,16.2L257.12,605.29l20.38-24.36-147.85-293-7.05,2Z"/><rect class="cls-4" x="62.46" y="283.74" width="120.29" height="26.44" rx="12.53" transform="translate(-123.1 89.97) rotate(-27.45)"/><path class="cls-5" d="M81.51,319.61l-1.28-2.46A13.22,13.22,0,0,1,81,303.69l-6.1,3.17a13.23,13.23,0,0,0-5.64,17.83h0a13.23,13.23,0,0,0,17.83,5.64l7-3.62A13.21,13.21,0,0,1,81.51,319.61Z"/><path class="cls-3" d="M245.68,619.58l20.71,10.66c5.95,3.07,17.64-2.78,20.67-8.75l248.23-490a12.07,12.07,0,0,0-5.24-16.2l-17.18-8.85a12.08,12.08,0,0,0-16.24,5.15L240.5,603.26A12.08,12.08,0,0,0,245.68,619.58Z"/><path d="M439.84,262.67l-6.12-19.35,19.35-6.11,3.6-6.92-6.12-19.35,19.36-6.12,3.59-6.92-6.11-19.35,19.35-6.11,3.6-6.92-6.12-19.35,19.35-6.12,2.94-5.66,12.8-24.62,10.74,5.53a12.07,12.07,0,0,1,5.24,16.2l-248.23,490-45,32.1L420.35,287.92l7,2Z"/><rect class="cls-4" x="367.25" y="283.74" width="120.29" height="26.44" rx="12.53" transform="translate(669.75 757.53) rotate(-152.55)"/><path class="cls-5" d="M468.49,319.61l1.28-2.46a13.22,13.22,0,0,0-.74-13.46l6.1,3.17a13.23,13.23,0,0,1,5.64,17.83h0a13.23,13.23,0,0,1-17.83,5.64l-7-3.62A13.21,13.21,0,0,0,468.49,319.61Z"/><polygon points="275 354.13 275 354.13 275 354.13 275 354.13"/><path d="M275,550a251.18,251.18,0,0,0,196.72-94.71l-5.78-30.81a64.61,64.61,0,0,0-51-45.64L273,354.15,131.1,378.84a64.61,64.61,0,0,0-51,45.64l-4.88,26.9A251.14,251.14,0,0,0,275,550Z"/><path class="cls-3" d="M333,364.16h0l-1.71-38.74a32.54,32.54,0,0,0-32.51-31.1H252a32.54,32.54,0,0,0-32.51,31.1l-1.71,38.74h0A169.66,169.66,0,0,0,333,364.16Z"/><path d="M331.29,325.42c0-.68-.09-1.36-.16-2-18.46,10.95-38.74,19-55.76,19h0c-12.92,0-27.72-4.65-42.17-11.66-4.59-2.24-9.15-4.7-13.6-7.34-.07.67-.13,1.35-.16,2l-.6,13.6L217,380a32.54,32.54,0,0,0,32.51,34h14A32.54,32.54,0,0,1,231,380l1.48-33.51c14.67,7.21,29.73,12,42.86,12h0c17.26,0,37.86-8.27,56.52-19.45Z"/><path class="cls-3" d="M275,27.22h0A127.69,127.69,0,0,0,147.29,154.9c0,40.68,14.55,120,33.92,139.42,22.14,22.13,63.21,48.07,93.79,48.07h0c30.58,0,71.65-25.94,93.79-48.07,19.37-19.37,33.92-98.74,33.92-139.42A127.69,127.69,0,0,0,275,27.22Z"/><path class="cls-6" d="M381.46,164.93c0-110.25-92.16-113.8-106.46-113.8s-106.46,3.55-106.46,113.8c0,17.3-5.48,16.65-5.48,29.48,0,21.53,36.46,61.53,36.46,78.46v7.44c0,22.16,25,32.49,75.48,32.49s75.48-10.33,75.48-32.49v-7.44c0-16.93,36.46-56.93,36.46-78.46C386.94,181.58,381.46,182.23,381.46,164.93ZM321.9,278.14H230.6l-15.24-49.3,7.52-11.62,36.5,20.67h36.88l34.24-20.67,6.64,11.62Z"/><path class="cls-7" d="M214.91,280.31v-7.44c0-16.93-36.46-56.93-36.46-78.46,0-12.83,5.48-12.18,5.48-29.48,0-97.66,72.32-111.6,98.77-113.51-3.41-.24-6.07-.29-7.7-.29-14.3,0-106.46,3.55-106.46,113.8,0,17.3-5.48,16.65-5.48,29.48,0,21.53,36.46,61.53,36.46,78.46v7.44c0,22.16,25,32.49,75.48,32.49,2.64,0,5.2,0,7.7-.09C237.38,311.68,214.91,301.31,214.91,280.31Z"/><path class="cls-8" d="M371.57,229.57a.87.87,0,0,0-.19-1.68c-6.84-.92-21.86-4.46-27.28-18.1h0a11.54,11.54,0,0,0-22.78,2.63,11.24,11.24,0,0,0,.19,2h0v0a11.6,11.6,0,0,0,3.92,6.78C338.89,239.67,362.86,232.87,371.57,229.57Z"/><path class="cls-8" d="M178.43,229.57a.87.87,0,0,1,.19-1.68c6.84-.92,21.86-4.46,27.28-18.1h0a11.54,11.54,0,0,1,22.78,2.63,11.24,11.24,0,0,1-.19,2h0v0a11.6,11.6,0,0,1-3.92,6.78C211.11,239.67,187.14,232.87,178.43,229.57Z"/><path class="cls-5" d="M275,250.55A69,69,0,0,0,336,213.89a65.77,65.77,0,0,0-3.55-6.76C320,220.74,299,229.71,275,229.71s-45-9-57.4-22.58a65.77,65.77,0,0,0-3.55,6.76A69,69,0,0,0,275,250.55Z"/><rect class="cls-5" x="236.53" y="266.85" width="76.95" height="15.8" rx="7.49"/><path class="cls-4" d="M370.78,51.08a1.57,1.57,0,0,0-3,.35c-1.64,12.27-8,39.22-32.48,48.94h0a20.69,20.69,0,0,0,8.34,40.53v0l.05,0a20.63,20.63,0,0,0,12.17-7C388.91,109.71,376.69,66.71,370.78,51.08Z"/><path class="cls-5" d="M370.78,51.08a1.57,1.57,0,0,0-3,.35v.06c5.2,19.75,8.05,51.57-18.67,71.1a20.68,20.68,0,0,1-12.17,7l-.05,0h0a21.56,21.56,0,0,1-3.62.33,20.63,20.63,0,0,1-13.46-5,20.57,20.57,0,0,0,23.84,15.94v0l.05,0a20.63,20.63,0,0,0,12.17-7C388.91,109.71,376.69,66.71,370.78,51.08Z"/><path class="cls-4" d="M179.22,51.08a1.57,1.57,0,0,1,3,.35c1.64,12.27,8,39.22,32.48,48.94h0a20.69,20.69,0,0,1-8.34,40.53v0l0,0a20.63,20.63,0,0,1-12.17-7C161.09,109.71,173.31,66.71,179.22,51.08Z"/><path class="cls-5" d="M179.22,51.08a1.57,1.57,0,0,1,3,.35v.06c-5.2,19.75-8.05,51.57,18.67,71.1a20.68,20.68,0,0,0,12.17,7l0,0h0a21.56,21.56,0,0,0,3.62.33,20.63,20.63,0,0,0,13.46-5,20.57,20.57,0,0,1-23.84,15.94v0l0,0a20.63,20.63,0,0,1-12.17-7C161.09,109.71,173.31,66.71,179.22,51.08Z"/><path class="cls-4" d="M371.57,229.57a.87.87,0,0,0-.19-1.68c-6.84-.92-21.86-4.46-27.28-18.1h0a11.54,11.54,0,0,0-22.78,2.63,11.24,11.24,0,0,0,.19,2h0v0a11.6,11.6,0,0,0,3.92,6.78C338.89,239.67,362.86,232.87,371.57,229.57Z"/><path class="cls-4" d="M178.43,229.57a.87.87,0,0,1,.19-1.68c6.84-.92,21.86-4.46,27.28-18.1h0a11.54,11.54,0,0,1,22.78,2.63,11.24,11.24,0,0,1-.19,2h0v0a11.6,11.6,0,0,1-3.92,6.78C211.11,239.67,187.14,232.87,178.43,229.57Z"/><path class="cls-4" d="M324.44,244a.76.76,0,0,0-1.47.17c-.8,6-3.9,19.12-15.83,23.86h0a10.09,10.09,0,0,0,4.06,19.76h0l0,0a10.09,10.09,0,0,0,5.93-3.42C333.28,272.55,327.32,251.59,324.44,244Z"/><path class="cls-4" d="M225.56,244a.76.76,0,0,1,1.47.17c.8,6,3.9,19.12,15.83,23.86h0a10.09,10.09,0,0,1-4.06,19.76h0l0,0a10.09,10.09,0,0,1-5.93-3.42C216.72,272.55,222.68,251.59,225.56,244Z"/><rect class="cls-7" x="179.98" y="145.72" width="190.05" height="15.05" rx="7.13"/><rect class="cls-7" x="252.04" y="156.25" width="45.92" height="40.06"/><path class="cls-4" d="M265.29,160.77a36.08,36.08,0,0,1-72.15,0Z"/><path class="cls-5" d="M206.75,160.77H193.14A36.06,36.06,0,0,0,236,196.19,36.09,36.09,0,0,1,206.75,160.77Z"/><path class="cls-4" d="M356.86,160.77a36.08,36.08,0,0,1-72.15,0Z"/><path class="cls-5" d="M298.32,160.77H284.71a36.06,36.06,0,0,0,42.88,35.42A36.09,36.09,0,0,1,298.32,160.77Z"/><path class="cls-7" d="M302.34,186.65a16.22,16.22,0,0,0-8.29,2.29,24.83,24.83,0,0,0-37.77.2A16.3,16.3,0,1,0,254,218a24.84,24.84,0,0,0,42.45.15,16.1,16.1,0,0,0,5.91,1.13,16.31,16.31,0,1,0,0-32.61Z"/><path class="cls-9" d="M302.34,207a16.1,16.1,0,0,1-5.91-1.13,24.84,24.84,0,0,1-42.45-.15,16.28,16.28,0,0,1-21.43-8.91A16.29,16.29,0,0,0,254,218a24.84,24.84,0,0,0,42.45.15,16.1,16.1,0,0,0,5.91,1.13,16.28,16.28,0,0,0,15.11-22.42A16.31,16.31,0,0,1,302.34,207Z"/></svg>